<svg width="41" height="41" viewBox="0 0 41 41" fill="none" xmlns="http://www.w3.org/2000/svg">
<path d="M19.1247 9.82544L20.3053 10.9715L20.7789 9.39576C21.8265 5.91026 23.2479 3.28342 26.1358 2.0773L26.1464 2.07288L26.1569 2.06821C29.4009 0.624989 32.5702 0.588787 35.4033 2.74922L35.4032 2.74927L35.4122 2.75599C38.5845 5.11912 39.3861 8.57676 38.9164 12.6389L38.9161 12.6416C38.5599 15.7975 37.1784 18.5338 35.2355 21.1313C33.5347 23.29 31.88 25.5114 30.3275 27.847C28.3541 30.7567 27.0068 33.9347 26.6008 37.8696C24.8384 36.4583 22.9505 35.5729 21.0804 34.8756C20.1511 34.5291 19.2077 34.2229 18.2933 33.926C18.0142 33.8355 17.7378 33.7457 17.4654 33.656C16.2851 33.2674 15.1562 32.872 14.0798 32.3791L14.079 32.3787C6.37459 28.8593 1.6741 23.1444 1.05923 14.451C0.78589 10.5309 2.22612 7.44981 5.48373 5.35817C7.09509 4.3433 8.68658 3.83916 10.2696 3.79837C11.8547 3.75753 13.4953 4.17969 15.2047 5.11493L15.2047 5.11499L15.2147 5.12034C15.8942 5.48212 16.3792 6.08835 16.9606 6.96351C17.0448 7.09016 17.1312 7.2231 17.2208 7.36078C17.7173 8.12409 18.3086 9.03325 19.1247 9.82544Z" stroke="#D51A1A" stroke-width="2"/>
</svg>
