<svg width="78" height="78" viewBox="0 0 78 78" fill="none" xmlns="http://www.w3.org/2000/svg">
<path d="M24.0455 43.7828C24.0455 43.7828 27.1456 39.4494 35.8275 38.6555M24.9974 22.2417C21.7815 28.9906 23.5222 30.2832 24.0457 37.1408C24.569 43.9985 24.0457 45.7404 21.1785 51.1675M28.9797 20.8928L27.9497 21.5162C26.8848 22.1608 25.6183 22.3867 24.3962 22.1502L21.7385 21.6359M37.447 67.7119C26.2143 70.1857 15.3721 63.9048 8.16793 62.169C5.81018 61.6009 4.1126 59.5437 4.00001 57.1211C3.98746 43.4944 12.0742 24.7998 17.2515 14.3874C17.7557 13.3734 18.4693 12.478 19.3451 11.7601C21.8942 9.67086 28.018 6 28.018 6L34.2224 7.19624L39.7987 12.0168C41.169 13.5984 39.8052 15.2544 37.3915 15.4233L36.0225 15.543M27.0559 19.1484L30.3615 21.5291C30.6566 21.7416 31.013 21.852 31.3765 21.8435C31.7401 21.835 32.0909 21.7081 32.3758 21.482C32.6606 21.256 32.8639 20.9431 32.9547 20.591C33.0455 20.2389 33.019 19.8667 32.879 19.5311L30.8976 14.7191L26.7053 13.2587M32.6603 18.9113C32.9377 19.2002 33.3017 19.3908 33.6972 19.454C34.0927 19.5172 34.498 19.4497 34.8516 19.2616C35.2052 19.0735 35.4878 18.7751 35.6564 18.4118C35.825 18.0486 35.8704 17.6402 35.7858 17.2487L34.1716 11.7619L29.6273 10.0142M40.2373 13.851C41.9266 14.6169 42.1249 17.0958 40.6446 18.5274L35.8275 23.2037C35.8275 23.2037 33.2463 21.6965 33.2534 19.3242M38.9446 45.6713V59.6416C38.9445 60.6221 39.2026 61.5853 39.6929 62.4345C40.1831 63.2836 40.8883 63.9887 41.7374 64.4789L53.8362 71.4641C54.6853 71.9543 55.6485 72.2124 56.629 72.2124C57.6095 72.2124 58.5727 71.9543 59.4218 71.4641L71.5206 64.4789C72.3697 63.9886 73.0748 63.2835 73.565 62.4344C74.0553 61.5853 74.3134 60.6221 74.3134 59.6416V45.6713C74.3135 44.6908 74.0554 43.7276 73.5651 42.8784C73.0749 42.0293 72.3697 41.3242 71.5206 40.834L59.4218 33.8488C58.5727 33.3586 57.6095 33.1005 56.629 33.1005C55.6485 33.1005 54.6853 33.3586 53.8362 33.8488L41.7374 40.834C40.8883 41.3242 40.1831 42.0293 39.6929 42.8784C39.2026 43.7276 38.9445 44.6908 38.9446 45.6713ZM59.8137 41.6657L50.1489 54.198H55.4139L53.1863 63.6472L63.1089 50.7556H57.6414L59.8137 41.6657Z" stroke="#D51A1A" stroke-width="3" stroke-miterlimit="10" stroke-linecap="round" stroke-linejoin="round"/>
</svg>
