<svg width="414" height="83" viewBox="0 0 414 83" fill="none" xmlns="http://www.w3.org/2000/svg">
<path d="M4.875 71.1491C4.875 49.8605 13.9436 36.4065 35.6321 31.2262C57.7171 25.9512 73.736 50.0782 85.9623 63.4756C92.6096 70.7597 98.9938 75.8562 108.331 69.8011C117.203 64.0482 124.342 56.078 133.289 50.41C140.057 46.1223 148.631 40.4751 156.797 39.6256C167.536 38.5085 176.424 48.5931 183.878 54.7652C199.528 67.7236 211.14 70.904 228.564 57.9798C241.301 48.5327 260.782 23 277.082 37.6035C288.43 47.7701 303.53 66.2716 320.888 63.5274C331.257 61.8881 341.428 49.2618 351.075 44.6548C363.303 38.8157 375.448 34.0796 388.875 34.7518" stroke="#D51A1A" stroke-width="5" stroke-linecap="round"/>
<path d="M32.144 19.9187L33.8591 21.4556L34.5715 19.2656C36.2606 14.0728 38.5606 10.106 43.3149 8.27444L43.3301 8.26858L43.3451 8.2624C48.67 6.07713 53.9148 6.01878 58.5837 9.30604L58.5905 9.31078L58.5972 9.31544C63.7793 12.8796 65.0573 18.0516 64.3024 24.0954L64.3019 24.0997C63.728 28.8065 61.4954 32.9 58.3356 36.7999C55.5733 40.0368 52.8859 43.3677 50.3642 46.8704C47.1317 51.2712 44.9262 56.0928 44.2868 62.0866C41.3687 59.8763 38.233 58.511 35.1267 57.441C33.6208 56.9223 32.0936 56.4642 30.6083 56.0187C30.1541 55.8824 29.7037 55.7474 29.2591 55.6121C27.3392 55.0279 25.4958 54.4316 23.7362 53.6874L23.735 53.6869C11.1457 48.375 3.53391 39.7785 2.53449 26.7961C2.30999 23.8378 2.79987 21.2361 3.96705 18.9984C5.13361 16.7618 7.02215 14.8018 9.73139 13.1968C14.9379 10.1707 20.2134 10.0382 25.7441 12.8327L25.7514 12.8364L25.7587 12.84C26.8959 13.3991 27.6923 14.3259 28.6313 15.6302C28.7685 15.8207 28.9093 16.0205 29.0551 16.2273C29.8628 17.3732 30.822 18.734 32.144 19.9187Z" stroke="#D51A1A" stroke-width="3"/>
<path d="M150.609 28.4013L151.676 30.4422L153.111 28.6412C156.514 24.3708 160.06 21.4627 165.154 21.4151L165.171 21.415L165.187 21.4145C170.94 21.2357 175.872 23.0207 179.091 27.7368L179.096 27.7436L179.101 27.7503C182.703 32.9057 182.086 38.1974 179.259 43.5924L179.257 43.5963C177.069 47.8028 173.542 50.853 169.215 53.3969C165.493 55.4592 161.808 57.6359 158.218 60.0316C153.647 63.0189 149.891 66.7606 147.19 72.1494C145.232 69.056 142.775 66.6775 140.241 64.5859C139.013 63.572 137.743 62.6074 136.509 61.6692C136.131 61.3823 135.757 61.0978 135.388 60.8152C133.795 59.5947 132.278 58.3897 130.891 57.0756L130.89 57.0747C120.963 47.6845 116.851 36.9643 120.468 24.4562C121.296 21.6071 122.667 19.3425 124.545 17.6563C126.422 15.971 128.878 14.798 131.978 14.2452C137.915 13.2376 142.902 14.9639 147.101 19.5208L147.107 19.5267L147.112 19.5327C147.981 20.4552 148.402 21.6024 148.824 23.1532C148.885 23.3797 148.947 23.6162 149.011 23.861C149.365 25.2174 149.786 26.8283 150.609 28.4013Z" stroke="#D51A1A" stroke-width="3"/>
<path d="M261.891 22.3254L263.468 24.0038L264.365 21.8829C266.493 16.8541 269.125 13.0991 274.019 11.6821L274.035 11.6775L274.05 11.6727C279.543 9.95211 284.773 10.3438 289.143 14.0193L289.149 14.0246L289.156 14.0298C294.013 18.0253 294.843 23.2878 293.573 29.2446L293.572 29.2489C292.596 33.8891 290.021 37.776 286.538 41.3906C283.508 44.3786 280.545 47.4669 277.733 50.7404C274.134 54.8477 271.524 59.4624 270.373 65.3793C267.655 62.9269 264.648 61.2977 261.645 59.9653C260.189 59.3194 258.706 58.732 257.265 58.1607C256.824 57.986 256.387 57.8128 255.956 57.6399C254.093 56.8933 252.307 56.1411 250.618 55.2487L250.617 55.2481C238.529 48.8761 231.683 39.6585 231.801 26.6382C231.831 23.6716 232.542 21.1215 233.897 18.9921C235.251 16.8638 237.3 15.073 240.137 13.7062C245.584 11.1378 250.851 11.4582 256.122 14.7167L256.129 14.721L256.136 14.7252C257.221 15.3798 257.935 16.3715 258.759 17.7515C258.879 17.953 259.002 18.1642 259.13 18.3827C259.836 19.5936 260.675 21.0318 261.891 22.3254Z" stroke="#D51A1A" stroke-width="3"/>
<path d="M377.914 17.5285L379.491 19.2069L380.389 17.086C382.517 12.0572 385.149 8.30225 390.042 6.8852L390.058 6.88067L390.074 6.8758C395.566 5.15523 400.797 5.54688 405.167 9.22243L405.173 9.22773L405.179 9.23296C410.037 13.2284 410.866 18.4909 409.596 24.4477L409.595 24.452C408.62 29.0923 406.044 32.9792 402.562 36.5938C399.532 39.5818 396.569 42.67 393.756 45.9436C390.158 50.0509 387.547 54.6655 386.396 60.5824C383.678 58.13 380.671 56.5008 377.668 55.1684C376.212 54.5225 374.73 53.9351 373.288 53.3639C372.847 53.1892 372.41 53.016 371.979 52.8431C370.116 52.0964 368.331 51.3442 366.641 50.4518L366.64 50.4512C354.553 44.0792 347.706 34.8616 347.824 21.8414C347.854 18.8747 348.565 16.3246 349.92 14.1952C351.274 12.067 353.324 10.2762 356.161 8.90935C361.607 6.34096 366.875 6.66131 372.146 9.91983L372.152 9.92411L372.159 9.92832C373.244 10.583 373.959 11.5746 374.782 12.9546C374.903 13.1562 375.026 13.3673 375.153 13.5859C375.86 14.7968 376.699 16.2349 377.914 17.5285Z" stroke="#D51A1A" stroke-width="3"/>
</svg>
