<svg width="311" height="103" viewBox="0 0 311 103" fill="none" xmlns="http://www.w3.org/2000/svg">
<path d="M254.975 20.4629C262.152 16.3625 271.981 14.5668 280.078 13.4298C289.251 12.1415 304.218 13.0014 307.445 23.9754C310.53 34.4676 300.074 44.4633 292.957 50.3605C286.801 55.4626 280.138 59.2617 272.53 61.6797M198.218 49.5383C190.69 52.9703 183.538 59.8738 177.93 65.7576C171.575 72.4239 163.655 85.0078 170.863 93.9424C177.755 102.485 192.045 99.8035 201.022 97.4565C208.789 95.4259 215.77 92.2357 222.156 87.485M216.533 66.0704L258.662 44.4891M3 61.8811C12.3546 45.4472 32.921 35.3689 50.4594 30.5411C73.2445 24.2691 101.494 23.486 124.692 28.5767C125.784 28.8164 141.001 34.2419 138.988 31.6593C133.646 24.807 126.573 18.8802 119.846 13.4659C113.757 8.56432 116.89 11.2521 111.063 6.69619C110.109 5.94996 109.131 5.22731 108.247 4.39934C106.94 3.17612 106.396 2.52791 108.731 2.88824C126.098 5.56799 144.382 15.293 159.916 23.0159C162.773 24.4365 169.271 27.5429 172.061 30.1785C176.789 34.6458 164.792 34.7789 163.944 34.8628C153.536 35.8938 143.016 35.6455 132.688 37.5224C124.426 39.0238 120.694 42.5999 113.668 46.1054" stroke="#D51A1A" stroke-width="5" stroke-linecap="round"/>
</svg>
