<svg width="41" height="41" viewBox="0 0 41 41" fill="none" xmlns="http://www.w3.org/2000/svg">
<g clip-path="url(#clip0_10901_121)">
<path d="M32.9785 17.7845C32.8623 17.5912 32.8215 17.3619 32.864 17.1404C32.9065 16.9189 33.0293 16.721 33.2088 16.5845C33.6875 16.1905 33.9663 15.6087 33.9663 14.9845C33.9663 14.3542 33.6875 13.7602 33.1906 13.3542C33.1779 13.3421 33.1637 13.3319 33.1482 13.3239C32.9542 13.1542 32.8451 12.9057 32.8451 12.639C32.8451 12.4754 32.8936 12.3117 32.9785 12.1602C33.1724 11.833 33.2754 11.4633 33.2754 11.0875C33.2754 10.1905 32.7118 9.40265 31.8694 9.1178C31.433 8.96629 31.1724 8.5178 31.2633 8.07538C31.2633 8.06326 31.2694 8.05114 31.2694 8.03902C31.3785 7.43902 31.2148 6.82083 30.8269 6.34811C30.4269 5.86326 29.8451 5.58447 29.1663 5.58447C28.7057 5.58447 28.3239 5.2572 28.2512 4.80871C28.2035 4.50076 28.0872 4.20746 27.911 3.95045C27.7348 3.69345 27.5031 3.47932 27.233 3.32386C26.6997 3.01477 26.0633 2.96023 25.4875 3.16629L25.4269 3.18447C25.336 3.22083 25.2209 3.23902 25.0997 3.23902C24.7663 3.23902 24.4572 3.0572 24.2997 2.76023C24.1184 2.43539 23.8538 2.16475 23.5332 1.97619C23.2125 1.78764 22.8474 1.68798 22.4754 1.6875C21.9724 1.6875 21.4875 1.86932 21.1118 2.20265C20.7724 2.49356 20.2391 2.49356 19.8936 2.20265C19.5134 1.8725 19.0274 1.68971 18.5239 1.6875C17.7663 1.6875 17.0694 2.09962 16.6936 2.76629C16.4754 3.16023 15.9482 3.33599 15.5603 3.17841C15.3239 3.0875 15.0694 3.03902 14.8088 3.03902C14.311 3.03762 13.8293 3.21484 13.4512 3.53848C13.0731 3.86212 12.8236 4.31068 12.7482 4.80265C12.6754 5.25114 12.2815 5.60265 11.8209 5.57841C11.1966 5.57841 10.5966 5.83902 10.1906 6.32386C9.99433 6.55701 9.85143 6.83024 9.77186 7.12442C9.6923 7.4186 9.678 7.72661 9.72997 8.02689C9.72997 8.03902 9.72997 8.04508 9.73603 8.0572C9.74815 8.12386 9.75421 8.18447 9.75421 8.24508C9.75421 8.63902 9.50573 8.98447 9.13603 9.11174C8.83991 9.21112 8.56997 9.37589 8.34622 9.59384C8.12247 9.81178 7.95067 10.0773 7.84355 10.3707C7.73643 10.6641 7.69675 10.9779 7.72745 11.2887C7.75815 11.5996 7.85844 11.8995 8.02088 12.1663C8.25118 12.542 8.1724 13.033 7.85118 13.3239C7.833 13.336 7.82088 13.342 7.80876 13.3542C7.31785 13.7542 7.03906 14.3481 7.03906 14.9784C7.03906 15.6087 7.32391 16.1966 7.7724 16.5602C7.78452 16.5723 7.8027 16.5905 7.82088 16.6027C8.033 16.7723 8.16027 17.039 8.16027 17.3117C8.16027 17.4754 8.11179 17.639 8.02694 17.7905C7.833 18.1178 7.72997 18.4875 7.72997 18.8633C7.72997 19.7542 8.29967 20.5481 9.14815 20.8451C9.57846 20.9905 9.83906 21.439 9.74815 21.8875C9.74815 21.8996 9.74209 21.9117 9.74209 21.9299C9.633 22.542 9.8027 23.1602 10.2027 23.639C10.6027 24.1117 11.1785 24.3845 11.8269 24.3845C12.2815 24.3845 12.6936 24.7057 12.7663 25.1663C12.9239 26.1299 13.7421 26.8693 14.6997 26.9178C15.0027 26.942 15.2997 26.8996 15.5845 26.7845L15.6209 26.7663C16.0209 26.633 16.4694 26.7966 16.6936 27.1602C16.6997 27.1724 16.7057 27.1905 16.7179 27.2027C16.9004 27.5277 17.1661 27.7984 17.4877 27.9869C17.8094 28.1754 18.1753 28.275 18.5482 28.2754C18.9239 28.2754 19.2936 28.1724 19.5906 27.9905C19.6997 27.9299 19.8088 27.8511 19.9118 27.7602C20.2148 27.4996 20.6451 27.4633 20.9663 27.6451C21.0269 27.6754 21.0754 27.7178 21.1239 27.7542C21.5966 28.1663 22.2269 28.3421 22.8512 28.239C23.4754 28.1299 24.0088 27.7542 24.3179 27.1966C24.3239 27.1845 24.33 27.1663 24.3421 27.1542C24.5663 26.7905 25.0209 26.6269 25.4269 26.7663L25.4633 26.7845C25.6997 26.8754 25.9542 26.9239 26.2088 26.9239C27.2451 26.9239 28.1118 26.1845 28.2694 25.1602C28.3421 24.7057 28.7239 24.3784 29.1966 24.3784C29.5041 24.3829 29.8087 24.3196 30.0889 24.1929C30.3691 24.0663 30.6178 23.8794 30.8175 23.6456C31.0172 23.4117 31.1628 23.1368 31.2441 22.8402C31.3253 22.5437 31.3402 22.2329 31.2875 21.9299C31.2875 21.9178 31.2815 21.8996 31.2815 21.8875C31.1966 21.4511 31.4391 21.0148 31.8512 20.8572C31.8633 20.8511 31.8815 20.8511 31.8936 20.8451C32.4936 20.639 32.9603 20.1723 33.1785 19.5784C33.3845 19.0027 33.33 18.3784 33.033 17.8511C32.9966 17.8208 32.9906 17.8027 32.9785 17.7845ZM32.4572 15.6875C32.4512 15.6936 32.4391 15.6996 32.433 15.7057C32.058 16.0187 31.8043 16.4529 31.7157 16.9333C31.6272 17.4137 31.7094 17.9099 31.9482 18.336C31.9603 18.3542 31.9663 18.3784 31.9785 18.3966C32.1239 18.633 32.1482 18.9178 32.0572 19.1784C31.9663 19.433 31.7724 19.633 31.5179 19.7299C31.5057 19.736 31.4936 19.736 31.4875 19.742C30.5179 20.0693 29.93 21.0693 30.1118 22.0814C30.1118 22.0936 30.1178 22.1057 30.1178 22.1178C30.1724 22.3905 30.0997 22.6754 29.9179 22.8875C29.7421 23.0936 29.4875 23.2148 29.1724 23.2148C28.1542 23.1845 27.2572 23.9481 27.0936 24.9784C27.0269 25.4269 26.6391 25.7542 26.1845 25.7542C26.0815 25.7542 25.9906 25.742 25.8997 25.7117C25.8694 25.6996 25.8391 25.6875 25.8027 25.6754C25.338 25.5075 24.8286 25.511 24.3664 25.6855C23.9041 25.86 23.5193 26.1938 23.2815 26.6269C23.2754 26.639 23.2694 26.6511 23.2633 26.6693C23.1239 26.8936 22.8997 27.0511 22.633 27.0936C22.3603 27.142 22.0815 27.0633 21.8694 26.8754C21.7542 26.7784 21.6391 26.6996 21.5179 26.6269C20.7785 26.2087 19.7966 26.3057 19.1421 26.8693C19.0997 26.9057 19.0572 26.936 18.9906 26.9784C18.5663 27.239 17.9906 27.0814 17.736 26.6693C17.73 26.6572 17.7239 26.639 17.7178 26.6269C17.2148 25.7239 16.1118 25.3178 15.1482 25.6875C15.13 25.6936 15.1118 25.6996 15.0997 25.7117C14.9966 25.7481 14.8875 25.7602 14.7663 25.7481C14.336 25.7239 13.9724 25.4027 13.9057 24.9724C13.7421 23.9542 12.8815 23.2087 11.8027 23.2087C11.5118 23.2208 11.2633 23.0936 11.0815 22.8814C10.8997 22.6693 10.8269 22.3845 10.8815 22.1117C10.8815 22.0996 10.8875 22.0875 10.8875 22.0754C11.0694 21.0633 10.4875 20.0633 9.51785 19.736C9.13603 19.6027 8.89361 19.2633 8.89361 18.8572C8.89361 18.6936 8.94209 18.5239 9.02694 18.3784C9.22088 18.0511 9.32391 17.6814 9.32391 17.3057C9.32391 16.6693 9.04512 16.0814 8.59664 15.7239L8.55421 15.6814C8.44916 15.5953 8.3643 15.4872 8.30565 15.3646C8.24701 15.2421 8.216 15.1082 8.21482 14.9724C8.21482 14.7057 8.32391 14.4572 8.51785 14.2814C8.52997 14.2693 8.54209 14.2633 8.56027 14.2511C9.36634 13.5966 9.56634 12.433 9.033 11.5542C8.94815 11.4087 8.89967 11.2451 8.89967 11.0754C8.89967 10.7481 9.09361 10.3481 9.52391 10.2027C9.93481 10.0626 10.2915 9.79724 10.5437 9.44391C10.7959 9.09058 10.931 8.66707 10.93 8.23296C10.93 8.1178 10.9179 7.99659 10.8997 7.86932C10.8997 7.8572 10.8936 7.83902 10.8936 7.82689C10.8391 7.55417 10.9118 7.26932 11.0936 7.0572C11.2694 6.84508 11.5239 6.72993 11.8027 6.72993H11.8512C12.8694 6.72993 13.7542 5.97841 13.9118 4.97235C13.9845 4.5178 14.3663 4.19053 14.8209 4.19053C14.9421 4.19053 15.0512 4.20871 15.1482 4.24508C15.3845 4.33599 15.6391 4.38447 15.9057 4.38447C16.6633 4.38447 17.3663 3.97235 17.7239 3.31174C17.9966 2.82083 18.6936 2.68144 19.1421 3.06932C19.9057 3.72386 21.1118 3.72386 21.8815 3.06326C22.3118 2.6875 23.0148 2.82083 23.2875 3.30568C23.6512 3.97235 24.3482 4.38447 25.1118 4.38447C25.3603 4.38447 25.6027 4.34205 25.8209 4.26326C25.8391 4.2572 25.8512 4.25114 25.8694 4.24508C26.13 4.14205 26.4148 4.16629 26.6572 4.30568C26.8997 4.44508 27.0633 4.68144 27.1057 4.96023C27.2694 5.97841 28.136 6.72386 29.2269 6.72386C29.4997 6.72386 29.7603 6.84508 29.936 7.06326C30.1118 7.27538 30.1845 7.55417 30.13 7.82083C30.13 7.83296 30.1239 7.84508 30.1239 7.8572C29.9421 8.86326 30.53 9.86326 31.5057 10.1966C31.8754 10.3239 32.1239 10.6693 32.1239 11.0693C32.1239 11.233 32.0754 11.3966 31.9906 11.5481C31.7966 11.8754 31.6936 12.2451 31.6936 12.6208C31.6936 13.2572 31.9724 13.8511 32.4633 14.2451C32.4754 14.2572 32.4875 14.2633 32.5057 14.2754C32.6997 14.4511 32.8148 14.6996 32.8148 14.9663C32.7966 15.2511 32.6754 15.5117 32.4572 15.6875Z" fill="#A38D41"/>
<path d="M20.4997 5.51562C15.2815 5.51562 11.0391 9.75805 11.0391 14.9762C11.0391 18.4368 12.93 21.6247 15.9724 23.2853C15.9785 23.2914 15.9906 23.2914 15.9966 23.2974C16.6997 23.6793 17.433 23.9641 18.1663 24.1459C18.9118 24.3399 19.6997 24.4368 20.4997 24.4368C25.7179 24.4368 29.9603 20.1944 29.9603 14.9762C29.9603 9.75805 25.7179 5.51562 20.4997 5.51562ZM20.4997 23.2732C19.7966 23.2732 19.1118 23.1884 18.4512 23.0126C17.8027 22.855 17.1603 22.6005 16.5421 22.2671C16.536 22.2611 16.53 22.2611 16.5239 22.255C15.2176 21.5391 14.1278 20.4852 13.3687 19.2036C12.6095 17.9219 12.2089 16.4598 12.2088 14.9702C12.2088 10.3944 15.93 6.6732 20.5057 6.6732C25.0815 6.6732 28.8027 10.3944 28.8027 14.9702C28.7966 19.552 25.0694 23.2732 20.4997 23.2732Z" fill="#A38D41"/>
<path d="M25.7543 13.2364L22.4815 12.7636L21.0209 9.8C20.827 9.4 20.1724 9.4 19.9785 9.8L18.5179 12.7636L15.2452 13.2364C15.027 13.2667 14.8452 13.4242 14.7724 13.6303C14.7394 13.734 14.7354 13.8449 14.7611 13.9507C14.7867 14.0565 14.841 14.1532 14.9179 14.2303L17.2815 16.5394L16.724 19.7939C16.6876 20.0121 16.7785 20.2364 16.9543 20.3636C17.1361 20.497 17.3724 20.5091 17.5664 20.4061L20.4997 18.8727L23.427 20.4121C23.5241 20.4621 23.633 20.4846 23.742 20.4771C23.851 20.4696 23.9558 20.4325 24.0452 20.3697C24.227 20.2364 24.3118 20.0182 24.2755 19.8L23.7179 16.5455L26.0815 14.2364C26.2391 14.0788 26.2997 13.8485 26.227 13.6364C26.1543 13.4242 25.9724 13.2727 25.7543 13.2364ZM22.6755 15.9212C22.5361 16.0545 22.4755 16.2485 22.5058 16.4364L22.9179 18.8303L20.7664 17.697C20.682 17.6536 20.5885 17.6308 20.4937 17.6303C20.4027 17.6303 20.3058 17.6545 20.2209 17.697L18.0755 18.8303L18.4876 16.4364C18.5031 16.3432 18.4958 16.2476 18.4662 16.1579C18.4367 16.0681 18.3858 15.9869 18.3179 15.9212L16.5785 14.2242L18.9846 13.8727C19.1724 13.8424 19.3361 13.7273 19.4209 13.5515L20.4937 11.3697L21.5664 13.5515C21.6512 13.7212 21.8149 13.8424 22.0027 13.8727L24.4088 14.2242L22.6755 15.9212ZM27.0997 28.4242C27.0717 28.3528 27.0299 28.2876 26.9765 28.2325C26.9232 28.1773 26.8595 28.1332 26.7891 28.1028C26.7187 28.0724 26.6429 28.0562 26.5662 28.0552C26.4895 28.0542 26.4133 28.0684 26.3421 28.097C26.0452 28.2121 25.8937 28.5515 26.0149 28.8545L28.9118 36.2424L26.1361 35.1818C26.0003 35.1297 25.85 35.1301 25.7144 35.1827C25.5789 35.2354 25.4678 35.3366 25.4027 35.4667L24.0937 38.1273L20.7421 29.5758C20.7141 29.5043 20.6723 29.4392 20.619 29.384C20.5656 29.3288 20.5019 29.2848 20.4315 29.2543C20.3611 29.2239 20.2853 29.2077 20.2086 29.2067C20.1319 29.2057 20.0558 29.2199 19.9846 29.2485C19.6876 29.3636 19.5361 29.703 19.6573 30.0061L23.4937 39.7879C23.5785 40 23.7785 40.1455 24.0088 40.1576H24.033C24.2573 40.1576 24.4573 40.0303 24.5543 39.8303L26.2149 36.4606L29.73 37.8061C29.8356 37.8472 29.951 37.8565 30.0618 37.833C30.1727 37.8095 30.2743 37.7541 30.3541 37.6736C30.4339 37.5932 30.4885 37.4911 30.5111 37.3801C30.5338 37.269 30.5235 37.1538 30.4815 37.0485L27.0997 28.4242ZM19.1543 32.4303C19.0102 32.3752 18.8504 32.3786 18.7089 32.4398C18.5673 32.5009 18.4553 32.615 18.3967 32.7576L16.9058 36.5576L15.5906 33.8909C15.5267 33.7599 15.4156 33.6577 15.2797 33.6049C15.1438 33.5521 14.9929 33.5525 14.8573 33.6061L12.0815 34.6667L14.4027 28.7455C14.4578 28.6014 14.4544 28.4416 14.3933 28.3001C14.3321 28.1585 14.2181 28.0465 14.0755 27.9879C13.9315 27.9328 13.7716 27.9362 13.6301 27.9974C13.4885 28.0585 13.3765 28.1726 13.3179 28.3152L10.5179 35.4606C10.4759 35.5659 10.4656 35.6811 10.4883 35.7922C10.5109 35.9032 10.5655 36.0053 10.6453 36.0857C10.7251 36.1662 10.8267 36.2216 10.9376 36.2451C11.0485 36.2687 11.1638 36.2593 11.2694 36.2182L14.7846 34.8727L16.4512 38.2485C16.5482 38.4485 16.7543 38.5758 16.9724 38.5758H16.9967C17.1091 38.5706 17.2176 38.5329 17.309 38.4673C17.4005 38.4016 17.4709 38.3109 17.5118 38.2061L19.4815 33.1758C19.5102 33.1054 19.5244 33.0301 19.5234 32.9542C19.5223 32.8783 19.5061 32.8033 19.4756 32.7338C19.445 32.6643 19.4009 32.6016 19.3457 32.5495C19.2905 32.4973 19.2254 32.4568 19.1543 32.4303Z" fill="#A38D41"/>
</g>
<defs>
<clipPath id="clip0_10901_121">
<rect width="40" height="40" fill="white" transform="translate(0.5 0.914062)"/>
</clipPath>
</defs>
</svg>
