<svg width="21" height="20" viewBox="0 0 21 20" fill="none" xmlns="http://www.w3.org/2000/svg">
<path d="M19.7188 9.21875H11.2812V0.78125C11.2812 0.349766 10.9315 0 10.5 0C10.0685 0 9.71875 0.349766 9.71875 0.78125V9.21875H1.28125C0.849766 9.21875 0.5 9.56852 0.5 10C0.5 10.4315 0.849766 10.7812 1.28125 10.7812H9.71875V19.2188C9.71875 19.6502 10.0685 20 10.5 20C10.9315 20 11.2812 19.6502 11.2812 19.2188V10.7812H19.7188C20.1502 10.7812 20.5 10.4315 20.5 10C20.5 9.56852 20.1502 9.21875 19.7188 9.21875Z" fill="#D8D0BD"/>
</svg>
