<svg width="40" height="41" viewBox="0 0 40 41" fill="none" xmlns="http://www.w3.org/2000/svg">
<path d="M2.03387 17.1518C0.144183 14.7354 -0.417146 12.7011 0.410667 11.2689L1.36457 9.61637C1.91989 8.65427 2.47543 7.69169 3.032 6.72903C3.91809 5.19427 6.2795 4.69223 9.68082 5.31575C12.8975 5.90536 16.7375 7.42434 20.4933 9.59286C22.2925 10.632 23.97 11.759 25.4793 12.9425L24.8056 13.8017C23.3366 12.6497 21.702 11.5518 19.9473 10.5383C16.2969 8.43075 12.5809 6.95731 9.48395 6.38966C6.61332 5.86341 4.60621 6.18622 3.97739 7.27528C2.77379 9.36098 6.6509 14.6562 14.3411 19.2148L13.7843 20.154C10.1486 17.9989 7.03293 15.4768 5.01098 13.0523C3.86332 11.6761 3.12887 10.3936 2.82676 9.26778C2.65465 9.56591 2.48223 9.86419 2.31028 10.1622L1.35614 11.815C0.884495 12.6311 1.18801 13.9368 2.18379 15.4843L3.00965 14.052L3.95551 14.5974L2.88051 16.4618L2.89403 16.4793C3.63192 17.4228 4.5659 18.3984 5.65262 19.3693L6.58809 17.7474L7.53387 18.2929L6.4945 20.095C7.66098 21.0663 8.9709 22.0236 10.3817 22.9293L9.79176 23.848C6.52653 21.7518 3.77145 19.3736 2.03387 17.1518ZM10.4879 9.16684C12.818 9.86051 15.7042 11.1679 18.6145 12.8479C19.8249 13.5475 20.9836 14.2788 22.0585 15.0214L22.679 14.123C21.5802 13.3639 20.3965 12.6168 19.1606 11.9025C16.1783 10.1808 13.2089 8.83762 10.7993 8.12036C8.08637 7.3127 6.42629 7.39567 5.86551 8.36669C5.30426 9.337 6.06246 10.8157 8.11895 12.7615C9.9452 14.4896 12.5933 16.39 15.5766 18.1132C15.7703 18.2245 15.9661 18.3357 16.1597 18.4449L16.6955 17.4936C16.5037 17.3856 16.3124 17.2768 16.1215 17.1672C13.211 15.4859 10.6354 13.6396 8.86926 11.9685C6.91348 10.1179 6.66739 9.16083 6.81075 8.91301C6.95418 8.66497 7.90715 8.39864 10.4879 9.16684ZM37.4976 25.0116C35.3786 27.5036 32.1434 30.07 28.3882 32.2382C24.6312 34.4068 20.7906 35.9257 17.5738 36.5153C16.6208 36.69 15.7491 36.7764 14.9689 36.7764C12.9644 36.7764 11.5625 36.2068 10.9245 35.1017C10.313 34.0415 9.70112 32.9816 9.08879 31.922L8.30325 30.5619C7.41692 29.0267 8.16254 26.7303 10.4029 24.0957C12.5222 21.6035 15.7581 19.0369 19.5144 16.8688C23.2695 14.7007 27.1099 13.1821 30.328 12.5925C33.73 11.9696 36.0916 12.4711 36.978 14.0051L39.5973 18.5475C40.4834 20.0813 39.7379 22.3771 37.4976 25.0116ZM9.24879 30.0161L9.24887 30.0161C9.87762 31.105 11.8848 31.4277 14.7557 30.9016C17.8528 30.334 21.5695 28.8605 25.2211 26.7529C28.8713 24.6454 32.0054 22.1634 34.0458 19.7643C35.9369 17.5407 36.6611 15.6408 36.0327 14.5517L36.0323 14.5511C35.4037 13.4631 33.3962 13.1407 30.5247 13.6666C27.4264 14.2342 23.71 15.7072 20.0603 17.8145C16.4094 19.9218 13.2751 22.4037 11.2347 24.8032C9.34371 27.0266 8.61989 28.9267 9.24879 30.0161ZM38.6516 19.0933L37.1827 16.5459C36.8696 17.7096 36.0946 19.0404 34.8775 20.4715C32.7581 22.9634 29.5226 25.53 25.767 27.6983C22.01 29.8669 18.1693 31.3858 14.9525 31.9754C13.9996 32.1501 13.1279 32.2365 12.3477 32.2365C11.6154 32.2365 10.9639 32.1602 10.4004 32.0098C10.8904 32.8583 11.3807 33.707 11.8703 34.556C12.3476 35.3827 13.6206 35.7672 15.4623 35.6743L14.6353 34.2393L15.5813 33.6941L16.6554 35.5579C16.8895 35.5252 17.1298 35.4866 17.377 35.4413C18.3805 35.2573 19.4494 34.9778 20.5598 34.6129L19.6218 32.9888L20.5672 32.4427L21.6093 34.247C22.7701 33.8197 23.9668 33.3056 25.175 32.7143L24.2143 31.0479L25.1602 30.5026L26.151 32.2213C27.2911 31.6267 28.4053 30.9836 29.4904 30.2936L28.4979 28.575L29.4433 28.029L30.4054 29.6949C31.5212 28.9446 32.5645 28.1654 33.5148 27.3739L32.4739 25.569L33.4197 25.0235L34.3565 26.6479C35.2279 25.8684 36.0047 25.0821 36.6659 24.3044C36.8236 24.119 36.9774 23.9302 37.1272 23.7383L36.0523 21.8759L36.9979 21.3301L37.8248 22.7626C38.8258 21.214 39.129 19.9197 38.6516 19.0933ZM11.1368 28.9242C10.5768 27.9535 11.3353 26.4747 13.3911 24.5289C15.2181 22.7995 17.866 20.8993 20.8471 19.1785C23.8293 17.4568 26.7988 16.1137 29.2083 15.3964C31.9214 14.5887 33.5814 14.6717 34.1423 15.643C34.7033 16.6143 33.945 18.0935 31.8887 20.0393C30.0625 21.7673 27.4143 23.6672 24.432 25.3888C21.4497 27.1104 18.4803 28.4536 16.0707 29.1709C14.8399 29.5373 13.8258 29.7204 13.0327 29.7204C12.0776 29.7204 11.4432 29.4549 11.1368 28.9242ZM12.0824 28.3784C12.2255 28.6263 13.1785 28.8926 15.7592 28.1244C18.0893 27.4307 20.9755 26.1234 23.8861 24.4432C26.7966 22.763 29.3721 20.9173 31.1382 19.2462C33.0941 17.3954 33.34 16.4372 33.1967 16.1891C33.0533 15.941 32.1004 15.6747 29.5197 16.4429C27.1896 17.1365 24.3033 18.4439 21.3929 20.1241C18.4836 21.8036 15.9084 23.6495 14.1415 25.3219C12.1859 27.173 11.9394 28.1307 12.0824 28.3784Z" fill="#363636"/>
</svg>
