<svg width="40" height="41" viewBox="0 0 40 41" fill="none" xmlns="http://www.w3.org/2000/svg">
<g clip-path="url(#clip0_10901_71)">
<path d="M38.2228 17.4764C35.2116 17.3582 32.1974 19.063 30.3328 21.5121M30.3328 21.5121C28.6328 20 25.9131 19.243 23.0891 19.2482M30.3328 21.5121C30.3328 21.5121 31.7293 22.537 32.7101 24.388M16.5305 20.9981C13.774 22.6248 12.3971 24.8024 12.3971 24.8024C13.6452 18.3189 11.7189 9.97586 11.7189 9.97586M11.7189 9.97586H14.2196C14.6004 9.97585 14.9753 9.88181 15.311 9.70209C15.6467 9.52236 15.9329 9.26252 16.144 8.94563L17.3971 7.06477C18.1 6.00977 17.8225 4.58547 16.7747 3.87172L14.1924 2.11235C13.8812 1.90029 13.5228 1.76746 13.1486 1.7254C12.7743 1.68334 12.3955 1.73333 12.045 1.87102L7.81613 3.53203C7.50509 3.65421 7.22988 3.85283 7.01593 4.10954C6.80198 4.36624 6.6562 4.67274 6.59207 5.00071L2.7973 24.4117C2.70332 24.91 2.55559 25.4319 2.4498 25.9472C2.20637 27.1328 2.84746 28.3278 3.96449 28.7938C4.16285 28.8766 4.35582 28.9633 4.51824 29.0475C5.26973 29.4373 6.27981 30.153 7.05059 31.122C10.7082 35.7202 22.4282 37.9377 28.1314 34.4014C28.405 34.232 28.6819 34.0682 28.9621 33.9101M11.7189 9.97586L11.4103 8.21859C11.2815 7.48547 11.8456 6.81367 12.5899 6.81367H13.6452M28.9621 33.9101C31.5546 38.8249 38.2228 40.1483 38.2228 40.1483M28.9621 33.9101C28.9621 33.9101 29.9451 33.2054 30.6117 32.3441C30.6117 32.3441 31.9788 33.6955 34.165 33.91M16.0284 30.419C16.0284 30.419 20.2568 32.4862 23.7334 30.419M27.9381 1.78706C24.1345 2.35057 21.5086 5.88995 22.072 9.69354C22.2232 10.7143 22.5895 11.6499 23.1172 12.4624L22.1549 15.0912L24.8067 14.2607C26.7431 15.6996 29.4116 16.0165 31.6432 15.0978C34.5149 13.9008 36.3213 10.8706 35.8446 7.65315C35.2811 3.84956 31.7417 1.22354 27.9381 1.78706ZM32.3662 8.05562C32.3662 7.01133 31.5196 6.16484 30.4754 6.16484C29.8564 6.16484 29.3068 6.46234 28.962 6.92219C28.6171 6.46234 28.0675 6.16484 27.4486 6.16484C26.4043 6.16484 25.5578 7.01141 25.5578 8.05562C25.5578 8.65562 25.8375 9.18992 26.2735 9.53633L28.9628 11.9116L31.6521 9.53633L31.6513 9.53586C32.0867 9.18953 32.3662 8.65539 32.3662 8.05562Z" stroke="#363636" stroke-width="2" stroke-miterlimit="10" stroke-linecap="round" stroke-linejoin="round"/>
</g>
<defs>
<clipPath id="clip0_10901_71">
<rect width="40" height="40" fill="white" transform="translate(0 0.914062)"/>
</clipPath>
</defs>
</svg>
