<svg width="41" height="42" viewBox="0 0 41 42" fill="none" xmlns="http://www.w3.org/2000/svg">
<path d="M19.2028 10.8254L20.3834 11.9715L20.857 10.3958C21.9046 6.91026 23.326 4.28342 26.2139 3.0773L26.2245 3.07288L26.235 3.06821C29.479 1.62499 32.6483 1.58879 35.4814 3.74922L35.4813 3.74927L35.4904 3.75599C38.6627 6.11912 39.4642 9.57676 38.9945 13.6389L38.9942 13.6416C38.638 16.7975 37.2565 19.5338 35.3136 22.1313C33.6128 24.29 31.9581 26.5114 30.4056 28.847C28.4323 31.7567 27.0849 34.9347 26.6789 38.8696C24.9165 37.4583 23.0287 36.5729 21.1586 35.8756C20.2292 35.5291 19.2858 35.2229 18.3714 34.926C18.0923 34.8355 17.816 34.7457 17.5435 34.656C16.3632 34.2674 15.2343 33.872 14.1579 33.3791L14.1571 33.3787C6.45271 29.8593 1.75223 24.1444 1.13735 15.451C0.864015 11.5309 2.30424 8.44981 5.56186 6.35817C7.17321 5.3433 8.76471 4.83916 10.3477 4.79837C11.9329 4.75753 13.5734 5.17969 15.2828 6.11493L15.2828 6.11499L15.2928 6.12034C15.9724 6.48212 16.4573 7.08835 17.0387 7.96351C17.1229 8.09016 17.2094 8.2231 17.2989 8.36078C17.7954 9.12409 18.3867 10.0332 19.2028 10.8254Z" stroke="#363636" stroke-width="2"/>
</svg>
